# xmcd
#
# Track frame offsets: 
#        182
#        12057
#        31152
#        46810
#        63657
#        77235
#        87907
#        116745
#        124650
#        143820
#
# Disc length: 2098 seconds
#
# Revision: 3
# Processed by: cddbd v1.5.2PL0 Copyright (c) Steve Scherf et al.
# Submitted via: ExactAudioCopy v0.95b4
#
DISCID=7c08300a
DTITLE=B.B. King - Live At The Regal
DYEAR=1900
DGENRE=Blues
TTITLE0=Every Day (I Have The Blues)
TTITLE1=Sweet Little Angel
TTITLE2=It's My Own Fault
TTITLE3=How Blues Can You Get
TTITLE4=Please Love Me
TTITLE5=You Upset Me Baby
TTITLE6=Worry, Worry
TTITLE7=Woke Up This Morning
TTITLE8=You Done Lost Your Good Thing Now
TTITLE9=Help The Poor
EXTD=ID3G:   0
EXTT0=
EXTT1=
EXTT2=
EXTT3=
EXTT4=
EXTT5=
EXTT6=
EXTT7=
EXTT8=
EXTT9=
PLAYORDER=
